<mxfile host="app.diagrams.net" agent="Mozilla/5.0 (Macintosh; Intel Mac OS X 10_15_7) AppleWebKit/537.36 (KHTML, like Gecko) Chrome/132.0.0.0 Safari/537.36" version="26.0.16" pages="2">
  <diagram name="Movie Microsevice" id="MNWNtyiV6_2QFbXmVtE7">
    <mxGraphModel dx="101425" dy="101067" grid="1" gridSize="10" guides="1" tooltips="1" connect="1" arrows="1" fold="1" page="1" pageScale="1" pageWidth="100000" pageHeight="100000" math="0" shadow="0">
      <root>
        <mxCell id="0" />
        <mxCell id="1" parent="0" />
        <mxCell id="EhGif2WsHZBi78P1-uk_-39" value="" style="rounded=0;whiteSpace=wrap;html=1;fillColor=default;" vertex="1" parent="1">
          <mxGeometry x="-192" y="-65" width="837" height="520" as="geometry" />
        </mxCell>
        <mxCell id="EhGif2WsHZBi78P1-uk_-33" value="" style="rounded=0;whiteSpace=wrap;html=1;fillColor=default;" vertex="1" parent="1">
          <mxGeometry x="80" y="-10" width="490" height="410" as="geometry" />
        </mxCell>
        <mxCell id="2" value="Client" style="whiteSpace=wrap;strokeWidth=2;" parent="1" vertex="1">
          <mxGeometry x="-120" y="96" width="103" height="54" as="geometry" />
        </mxCell>
        <mxCell id="3" value="Gateway" style="rounded=1;arcSize=20;strokeWidth=2" parent="1" vertex="1">
          <mxGeometry x="180" y="96" width="93" height="54" as="geometry" />
        </mxCell>
        <mxCell id="4" value="Rating" style="rounded=1;arcSize=20;strokeWidth=2" parent="1" vertex="1">
          <mxGeometry x="250" y="221" width="91" height="54" as="geometry" />
        </mxCell>
        <mxCell id="5" value="Metadata" style="rounded=1;arcSize=20;strokeWidth=2" parent="1" vertex="1">
          <mxGeometry x="129" y="227" width="91" height="54" as="geometry" />
        </mxCell>
        <mxCell id="7" value="HTTP" style="curved=1;startArrow=none;endArrow=block;exitX=1;exitY=0.51;entryX=0;entryY=0.51;" parent="1" source="2" target="3" edge="1">
          <mxGeometry x="-0.5228" y="-16" relative="1" as="geometry">
            <Array as="points" />
            <mxPoint as="offset" />
          </mxGeometry>
        </mxCell>
        <mxCell id="8" value="gRPC" style="curved=1;startArrow=none;endArrow=block;exitX=1;exitY=0.75;entryX=0.642;entryY=-0.042;exitDx=0;exitDy=0;entryDx=0;entryDy=0;entryPerimeter=0;" parent="1" source="3" target="4" edge="1">
          <mxGeometry relative="1" as="geometry">
            <Array as="points">
              <mxPoint x="360" y="180" />
            </Array>
          </mxGeometry>
        </mxCell>
        <mxCell id="9" value="gRPC" style="curved=1;startArrow=none;endArrow=block;exitX=0;exitY=0.75;entryX=0;entryY=0.02;exitDx=0;exitDy=0;" parent="1" source="3" target="5" edge="1">
          <mxGeometry x="-0.4426" y="30" relative="1" as="geometry">
            <Array as="points">
              <mxPoint x="110" y="170" />
            </Array>
            <mxPoint y="1" as="offset" />
          </mxGeometry>
        </mxCell>
        <mxCell id="12" value="" style="curved=1;startArrow=none;endArrow=block;exitX=0.386;exitY=0.979;exitDx=0;exitDy=0;exitPerimeter=0;" parent="1" source="5" edge="1">
          <mxGeometry relative="1" as="geometry">
            <Array as="points" />
            <mxPoint x="210" y="320" as="targetPoint" />
          </mxGeometry>
        </mxCell>
        <mxCell id="EhGif2WsHZBi78P1-uk_-35" value="" style="rounded=0;whiteSpace=wrap;html=1;fillColor=none;strokeColor=#6c8ebf;strokeWidth=2;" vertex="1" parent="1">
          <mxGeometry x="150" y="83" width="150" height="87" as="geometry" />
        </mxCell>
        <mxCell id="EhGif2WsHZBi78P1-uk_-16" value="" style="shape=image;verticalLabelPosition=bottom;labelBackgroundColor=default;verticalAlign=top;aspect=fixed;imageAspect=0;image=https://pngimg.com/d/mysql_PNG23.png;" vertex="1" parent="1">
          <mxGeometry x="213" y="330" width="50" height="50" as="geometry" />
        </mxCell>
        <mxCell id="EhGif2WsHZBi78P1-uk_-18" value="" style="curved=1;startArrow=none;endArrow=block;exitX=0.423;exitY=0.925;exitDx=0;exitDy=0;exitPerimeter=0;entryX=0.75;entryY=0;entryDx=0;entryDy=0;" edge="1" parent="1" source="4" target="EhGif2WsHZBi78P1-uk_-16">
          <mxGeometry relative="1" as="geometry">
            <Array as="points" />
            <mxPoint x="260" y="390" as="sourcePoint" />
            <mxPoint x="370" y="350" as="targetPoint" />
          </mxGeometry>
        </mxCell>
        <mxCell id="EhGif2WsHZBi78P1-uk_-20" value="External Rating Source" style="shape=ext;double=1;rounded=1;whiteSpace=wrap;html=1;" vertex="1" parent="1">
          <mxGeometry x="440" y="221" width="94.5" height="50" as="geometry" />
        </mxCell>
        <mxCell id="EhGif2WsHZBi78P1-uk_-23" value="" style="curved=1;startArrow=none;endArrow=block;entryX=1;entryY=0.5;entryDx=0;entryDy=0;exitX=0;exitY=0.5;exitDx=0;exitDy=0;" edge="1" parent="1" source="EhGif2WsHZBi78P1-uk_-20" target="4">
          <mxGeometry relative="1" as="geometry">
            <Array as="points" />
            <mxPoint x="450" y="350" as="sourcePoint" />
            <mxPoint x="620" y="310" as="targetPoint" />
          </mxGeometry>
        </mxCell>
        <mxCell id="EhGif2WsHZBi78P1-uk_-24" value="" style="shape=image;verticalLabelPosition=bottom;labelBackgroundColor=default;verticalAlign=top;aspect=fixed;imageAspect=0;image=https://static-00.iconduck.com/assets.00/kafka-icon-2048x935-cvu4503l.png;" vertex="1" parent="1">
          <mxGeometry x="360" y="258.16" width="50" height="22.84" as="geometry" />
        </mxCell>
        <mxCell id="EhGif2WsHZBi78P1-uk_-25" value="" style="shape=image;verticalLabelPosition=bottom;labelBackgroundColor=default;verticalAlign=top;aspect=fixed;imageAspect=0;image=https://connect.redhat.com/s3api/prod-s3api/1627597739-logo-url-60f9f0a2457b3a081d621c41.png;" vertex="1" parent="1">
          <mxGeometry x="458.25" y="90" width="43" height="60" as="geometry" />
        </mxCell>
        <mxCell id="EhGif2WsHZBi78P1-uk_-27" value="" style="rounded=0;whiteSpace=wrap;html=1;fillColor=none;" vertex="1" parent="1">
          <mxGeometry x="453" y="80" width="53.5" height="80" as="geometry" />
        </mxCell>
        <mxCell id="EhGif2WsHZBi78P1-uk_-28" value="Service Discovery" style="text;html=1;align=center;verticalAlign=middle;resizable=0;points=[];autosize=1;strokeColor=none;fillColor=none;" vertex="1" parent="1">
          <mxGeometry x="414.5" y="170" width="120" height="30" as="geometry" />
        </mxCell>
        <mxCell id="EhGif2WsHZBi78P1-uk_-34" value="&lt;font style=&quot;font-size: 16px;&quot;&gt;Containerized&lt;/font&gt;" style="text;html=1;align=center;verticalAlign=middle;resizable=0;points=[];autosize=1;strokeColor=none;fillColor=none;" vertex="1" parent="1">
          <mxGeometry x="120" y="20" width="120" height="30" as="geometry" />
        </mxCell>
        <mxCell id="EhGif2WsHZBi78P1-uk_-36" value="" style="rounded=0;whiteSpace=wrap;html=1;fillColor=none;strokeColor=#6c8ebf;strokeWidth=2;" vertex="1" parent="1">
          <mxGeometry x="420" y="60" width="120" height="140" as="geometry" />
        </mxCell>
        <mxCell id="EhGif2WsHZBi78P1-uk_-37" value="" style="rounded=0;whiteSpace=wrap;html=1;fillColor=none;strokeColor=#6c8ebf;strokeWidth=2;" vertex="1" parent="1">
          <mxGeometry x="119.5" y="214" width="110" height="80" as="geometry" />
        </mxCell>
        <mxCell id="EhGif2WsHZBi78P1-uk_-38" value="" style="rounded=0;whiteSpace=wrap;html=1;fillColor=none;strokeColor=#6c8ebf;strokeWidth=2;" vertex="1" parent="1">
          <mxGeometry x="240" y="214" width="110" height="80" as="geometry" />
        </mxCell>
      </root>
    </mxGraphModel>
  </diagram>
  <diagram id="rXAWb5HPpvhAfk9M7l43" name="Zap Url">
    <mxGraphModel dx="101425" dy="1067" grid="1" gridSize="10" guides="1" tooltips="1" connect="1" arrows="1" fold="1" page="1" pageScale="1" pageWidth="100000" pageHeight="100000" math="0" shadow="0">
      <root>
        <mxCell id="0" />
        <mxCell id="1" parent="0" />
        <mxCell id="1hIy4HLPLVqWvqV3tTR2-61" value="" style="rounded=0;whiteSpace=wrap;html=1;" vertex="1" parent="1">
          <mxGeometry x="-370" y="10" width="990" height="540" as="geometry" />
        </mxCell>
        <mxCell id="1hIy4HLPLVqWvqV3tTR2-53" value="" style="rounded=0;whiteSpace=wrap;html=1;fillColor=none;" vertex="1" parent="1">
          <mxGeometry x="-120" y="40" width="680" height="460" as="geometry" />
        </mxCell>
        <mxCell id="1hIy4HLPLVqWvqV3tTR2-3" value="Client" style="whiteSpace=wrap;strokeWidth=2;" vertex="1" parent="1">
          <mxGeometry x="-310" y="93" width="103" height="54" as="geometry" />
        </mxCell>
        <mxCell id="1hIy4HLPLVqWvqV3tTR2-4" value="Gateway" style="rounded=1;arcSize=20;strokeWidth=2" vertex="1" parent="1">
          <mxGeometry x="180" y="96" width="93" height="54" as="geometry" />
        </mxCell>
        <mxCell id="1hIy4HLPLVqWvqV3tTR2-5" value="Shorten" style="rounded=1;arcSize=20;strokeWidth=2" vertex="1" parent="1">
          <mxGeometry x="260" y="221" width="91" height="54" as="geometry" />
        </mxCell>
        <mxCell id="1hIy4HLPLVqWvqV3tTR2-46" style="edgeStyle=orthogonalEdgeStyle;rounded=0;orthogonalLoop=1;jettySize=auto;html=1;entryX=1;entryY=0.5;entryDx=0;entryDy=0;startArrow=classicThin;startFill=0;endArrow=none;" edge="1" parent="1" source="1hIy4HLPLVqWvqV3tTR2-6" target="1hIy4HLPLVqWvqV3tTR2-31">
          <mxGeometry relative="1" as="geometry" />
        </mxCell>
        <mxCell id="1hIy4HLPLVqWvqV3tTR2-51" value="Return&amp;nbsp;&lt;div&gt;if exists&lt;/div&gt;" style="edgeLabel;html=1;align=center;verticalAlign=middle;resizable=0;points=[];" vertex="1" connectable="0" parent="1hIy4HLPLVqWvqV3tTR2-46">
          <mxGeometry x="0.0197" relative="1" as="geometry">
            <mxPoint as="offset" />
          </mxGeometry>
        </mxCell>
        <mxCell id="1hIy4HLPLVqWvqV3tTR2-47" style="edgeStyle=orthogonalEdgeStyle;rounded=0;orthogonalLoop=1;jettySize=auto;html=1;entryX=0.5;entryY=1;entryDx=0;entryDy=0;" edge="1" parent="1" source="1hIy4HLPLVqWvqV3tTR2-6" target="1hIy4HLPLVqWvqV3tTR2-31">
          <mxGeometry relative="1" as="geometry">
            <Array as="points">
              <mxPoint x="150" y="400" />
              <mxPoint x="5" y="400" />
            </Array>
          </mxGeometry>
        </mxCell>
        <mxCell id="1hIy4HLPLVqWvqV3tTR2-50" value="Text" style="edgeLabel;html=1;align=center;verticalAlign=middle;resizable=0;points=[];" vertex="1" connectable="0" parent="1hIy4HLPLVqWvqV3tTR2-47">
          <mxGeometry x="0.0654" y="-2" relative="1" as="geometry">
            <mxPoint as="offset" />
          </mxGeometry>
        </mxCell>
        <mxCell id="1hIy4HLPLVqWvqV3tTR2-6" value="Redirect" style="rounded=1;arcSize=20;strokeWidth=2" vertex="1" parent="1">
          <mxGeometry x="129" y="227" width="91" height="54" as="geometry" />
        </mxCell>
        <mxCell id="1hIy4HLPLVqWvqV3tTR2-8" value="api" style="curved=1;startArrow=none;endArrow=block;exitX=1;exitY=0.75;entryX=0.642;entryY=-0.042;exitDx=0;exitDy=0;entryDx=0;entryDy=0;entryPerimeter=0;" edge="1" parent="1" source="1hIy4HLPLVqWvqV3tTR2-4" target="1hIy4HLPLVqWvqV3tTR2-5">
          <mxGeometry relative="1" as="geometry">
            <Array as="points">
              <mxPoint x="360" y="180" />
            </Array>
          </mxGeometry>
        </mxCell>
        <mxCell id="1hIy4HLPLVqWvqV3tTR2-9" value="api" style="curved=1;startArrow=none;endArrow=block;exitX=0;exitY=0.75;entryX=0;entryY=0.02;exitDx=0;exitDy=0;" edge="1" parent="1" source="1hIy4HLPLVqWvqV3tTR2-4" target="1hIy4HLPLVqWvqV3tTR2-6">
          <mxGeometry x="-0.4426" y="30" relative="1" as="geometry">
            <Array as="points">
              <mxPoint x="110" y="170" />
            </Array>
            <mxPoint y="1" as="offset" />
          </mxGeometry>
        </mxCell>
        <mxCell id="1hIy4HLPLVqWvqV3tTR2-12" value="" style="shape=image;verticalLabelPosition=bottom;labelBackgroundColor=default;verticalAlign=top;aspect=fixed;imageAspect=0;image=https://pngimg.com/d/mysql_PNG23.png;" vertex="1" parent="1">
          <mxGeometry x="170" y="410" width="50" height="50" as="geometry" />
        </mxCell>
        <mxCell id="1hIy4HLPLVqWvqV3tTR2-17" value="" style="shape=image;verticalLabelPosition=bottom;labelBackgroundColor=default;verticalAlign=top;aspect=fixed;imageAspect=0;image=https://connect.redhat.com/s3api/prod-s3api/1627597739-logo-url-60f9f0a2457b3a081d621c41.png;" vertex="1" parent="1">
          <mxGeometry x="445.25" y="93" width="43" height="60" as="geometry" />
        </mxCell>
        <mxCell id="1hIy4HLPLVqWvqV3tTR2-18" value="" style="rounded=0;whiteSpace=wrap;html=1;fillColor=none;" vertex="1" parent="1">
          <mxGeometry x="440" y="83" width="53.5" height="80" as="geometry" />
        </mxCell>
        <mxCell id="1hIy4HLPLVqWvqV3tTR2-19" value="Service Discovery" style="text;html=1;align=center;verticalAlign=middle;resizable=0;points=[];autosize=1;strokeColor=none;fillColor=none;" vertex="1" parent="1">
          <mxGeometry x="414.5" y="170" width="120" height="30" as="geometry" />
        </mxCell>
        <mxCell id="1hIy4HLPLVqWvqV3tTR2-20" value="&lt;font style=&quot;font-size: 16px;&quot;&gt;Containerized&lt;/font&gt;" style="text;html=1;align=center;verticalAlign=middle;resizable=0;points=[];autosize=1;strokeColor=none;fillColor=none;" vertex="1" parent="1">
          <mxGeometry x="160" y="53" width="120" height="30" as="geometry" />
        </mxCell>
        <mxCell id="1hIy4HLPLVqWvqV3tTR2-24" value="Kgs" style="rounded=1;arcSize=20;strokeWidth=2" vertex="1" parent="1">
          <mxGeometry x="421" y="221" width="94.5" height="54" as="geometry" />
        </mxCell>
        <mxCell id="1hIy4HLPLVqWvqV3tTR2-25" value="" style="shape=image;verticalLabelPosition=bottom;labelBackgroundColor=default;verticalAlign=top;aspect=fixed;imageAspect=0;image=https://cdn4.iconfinder.com/data/icons/redis-2/1451/Untitled-2-512.png;" vertex="1" parent="1">
          <mxGeometry x="427.25" y="380" width="82" height="82" as="geometry" />
        </mxCell>
        <mxCell id="1hIy4HLPLVqWvqV3tTR2-27" value="" style="endArrow=classic;html=1;rounded=0;exitX=0.5;exitY=1;exitDx=0;exitDy=0;startArrow=classic;startFill=1;" edge="1" parent="1" source="1hIy4HLPLVqWvqV3tTR2-24" target="1hIy4HLPLVqWvqV3tTR2-25">
          <mxGeometry width="50" height="50" relative="1" as="geometry">
            <mxPoint x="370" y="400" as="sourcePoint" />
            <mxPoint x="420" y="350" as="targetPoint" />
          </mxGeometry>
        </mxCell>
        <mxCell id="1hIy4HLPLVqWvqV3tTR2-28" value="Request for Short&lt;div&gt;code&lt;/div&gt;" style="text;html=1;align=center;verticalAlign=middle;resizable=0;points=[];autosize=1;strokeColor=none;fillColor=none;" vertex="1" parent="1">
          <mxGeometry x="351" y="310" width="120" height="40" as="geometry" />
        </mxCell>
        <mxCell id="1hIy4HLPLVqWvqV3tTR2-29" value="Pre Generated Key" style="text;html=1;align=center;verticalAlign=middle;resizable=0;points=[];autosize=1;strokeColor=none;fillColor=none;" vertex="1" parent="1">
          <mxGeometry x="403.25" y="462" width="130" height="30" as="geometry" />
        </mxCell>
        <mxCell id="1hIy4HLPLVqWvqV3tTR2-30" value="Short code" style="text;html=1;align=center;verticalAlign=middle;resizable=0;points=[];autosize=1;strokeColor=none;fillColor=none;" vertex="1" parent="1">
          <mxGeometry x="480" y="315" width="80" height="30" as="geometry" />
        </mxCell>
        <mxCell id="1hIy4HLPLVqWvqV3tTR2-31" value="" style="shape=image;verticalLabelPosition=bottom;labelBackgroundColor=default;verticalAlign=top;aspect=fixed;imageAspect=0;image=https://cdn4.iconfinder.com/data/icons/redis-2/1451/Untitled-2-512.png;" vertex="1" parent="1">
          <mxGeometry x="-30" y="213" width="70" height="70" as="geometry" />
        </mxCell>
        <mxCell id="1hIy4HLPLVqWvqV3tTR2-40" value="" style="curved=1;startArrow=block;endArrow=block;exitX=0.75;exitY=1;exitDx=0;exitDy=0;entryX=0.5;entryY=0;entryDx=0;entryDy=0;startFill=1;" edge="1" parent="1" source="1hIy4HLPLVqWvqV3tTR2-6" target="1hIy4HLPLVqWvqV3tTR2-12">
          <mxGeometry relative="1" as="geometry">
            <Array as="points" />
            <mxPoint x="110" y="390" as="targetPoint" />
            <mxPoint x="184" y="300" as="sourcePoint" />
          </mxGeometry>
        </mxCell>
        <mxCell id="1hIy4HLPLVqWvqV3tTR2-41" value="Retrieve from&amp;nbsp;&lt;div&gt;database&lt;/div&gt;" style="edgeLabel;html=1;align=center;verticalAlign=middle;resizable=0;points=[];" vertex="1" connectable="0" parent="1hIy4HLPLVqWvqV3tTR2-40">
          <mxGeometry x="-0.0398" y="-2" relative="1" as="geometry">
            <mxPoint as="offset" />
          </mxGeometry>
        </mxCell>
        <mxCell id="1hIy4HLPLVqWvqV3tTR2-42" value="" style="edgeStyle=segmentEdgeStyle;endArrow=none;html=1;curved=0;rounded=0;endSize=8;startSize=8;startArrow=classic;startFill=1;" edge="1" parent="1">
          <mxGeometry width="50" height="50" relative="1" as="geometry">
            <mxPoint x="230" y="430" as="sourcePoint" />
            <mxPoint x="300" y="280" as="targetPoint" />
          </mxGeometry>
        </mxCell>
        <mxCell id="1hIy4HLPLVqWvqV3tTR2-44" value="Store new&lt;div&gt;Short - Long&amp;nbsp;&lt;/div&gt;&lt;div&gt;pair&lt;/div&gt;" style="edgeLabel;html=1;align=center;verticalAlign=middle;resizable=0;points=[];" vertex="1" connectable="0" parent="1hIy4HLPLVqWvqV3tTR2-42">
          <mxGeometry x="0.4009" y="-1" relative="1" as="geometry">
            <mxPoint as="offset" />
          </mxGeometry>
        </mxCell>
        <mxCell id="1hIy4HLPLVqWvqV3tTR2-45" value="" style="endArrow=classic;html=1;rounded=0;startArrow=classic;startFill=1;entryX=0;entryY=0.5;entryDx=0;entryDy=0;" edge="1" parent="1" target="1hIy4HLPLVqWvqV3tTR2-24">
          <mxGeometry width="50" height="50" relative="1" as="geometry">
            <mxPoint x="351" y="249" as="sourcePoint" />
            <mxPoint x="431" y="249" as="targetPoint" />
          </mxGeometry>
        </mxCell>
        <mxCell id="1hIy4HLPLVqWvqV3tTR2-52" value="Cache" style="text;html=1;align=center;verticalAlign=middle;resizable=0;points=[];autosize=1;strokeColor=none;fillColor=none;" vertex="1" parent="1">
          <mxGeometry x="-100" y="233" width="60" height="30" as="geometry" />
        </mxCell>
        <mxCell id="1hIy4HLPLVqWvqV3tTR2-59" value="" style="shape=image;verticalLabelPosition=bottom;labelBackgroundColor=default;verticalAlign=top;aspect=fixed;imageAspect=0;image=https://upload.wikimedia.org/wikipedia/commons/thumb/1/1b/Svelte_Logo.svg/1702px-Svelte_Logo.svg.png;" vertex="1" parent="1">
          <mxGeometry x="-275.53" y="163" width="34.06" height="41" as="geometry" />
        </mxCell>
        <mxCell id="1hIy4HLPLVqWvqV3tTR2-60" style="edgeStyle=orthogonalEdgeStyle;rounded=0;orthogonalLoop=1;jettySize=auto;html=1;entryX=0;entryY=0.175;entryDx=0;entryDy=0;entryPerimeter=0;" edge="1" parent="1" source="1hIy4HLPLVqWvqV3tTR2-3" target="1hIy4HLPLVqWvqV3tTR2-53">
          <mxGeometry relative="1" as="geometry" />
        </mxCell>
      </root>
    </mxGraphModel>
  </diagram>
</mxfile>
